# xmcd
#
# Track frame offsets:
#	150
#	14129
#	28506
#	41889
#	55951
#	67823
#	80917
#	92609
#
# Disc length: 1395 seconds
#
# Revision: 1
# Processed by: cddbd v1.5.2PL0 Copyright (c) Steve Scherf et al.
# Submitted via: audiograbber 1.83.01
#
DISCID=68057108
DTITLE=Angela Baker - That´s How Much I Love You
DYEAR=1999
DGENRE=Country
TTITLE0=The Hurt In My Heart
TTITLE1=I Feel Lucky
TTITLE2=There Goes My Everything
TTITLE3=Like An Eagle When She Flies
TTITLE4=That´s How Much I Love You
TTITLE5=Wasted Years
TTITLE6=The Pillow On My Right
TTITLE7=Mommie Please Stay Home With Me
EXTD=
EXTT0=
EXTT1=
EXTT2=
EXTT3=
EXTT4=
EXTT5=
EXTT6=
EXTT7=
PLAYORDER=
